<?xml version="1.0" standalone="no"?>
<!DOCTYPE svg PUBLIC "-//W3C//DTD SVG 20010904//EN"
 "http://www.w3.org/TR/2001/REC-SVG-20010904/DTD/svg10.dtd">
<svg version="1.0" xmlns="http://www.w3.org/2000/svg"
 width="440.000000pt" height="440.000000pt" viewBox="0 0 440.000000 440.000000"
 preserveAspectRatio="xMidYMid meet">
<metadata>
Created by potrace 1.14, written by Peter Selinger 2001-2017
</metadata>
<g transform="translate(0.000000,440.000000) scale(0.100000,-0.100000)"
fill="#000000" stroke="none">
<path d="M2657 4384 c-3 -4 -23 -10 -44 -14 -21 -4 -65 -15 -98 -24 -33 -10
-68 -19 -77 -21 -9 -2 -61 -17 -115 -34 -54 -17 -107 -33 -118 -36 -11 -2 -38
-9 -60 -15 -22 -6 -47 -12 -55 -14 -8 -2 -42 -13 -75 -24 -72 -24 -290 -83
-323 -87 -44 -6 -91 -49 -148 -137 -31 -49 -61 -88 -66 -88 -4 0 -8 -5 -8 -11
0 -9 -75 -127 -89 -139 -3 -3 -31 -41 -60 -85 -30 -44 -59 -81 -63 -83 -4 -2
-8 -8 -8 -13 0 -12 -70 -113 -82 -117 -4 -2 -8 -7 -8 -12 0 -5 -36 -62 -80
-126 -44 -65 -80 -121 -80 -125 0 -11 41 -5 67 9 13 7 23 11 23 8 0 -2 21 2
47 10 25 8 52 14 60 14 19 0 18 -143 -1 -163 -23 -23 -43 -80 -56 -158 -6 -41
-15 -78 -20 -83 -6 -6 -10 -38 -10 -72 0 -68 6 -74 80 -74 42 0 55 8 64 37 9
28 9 264 0 364 -7 84 0 158 19 182 7 9 24 18 39 21 14 2 36 10 48 16 12 6 24
9 27 6 4 -3 11 -2 17 3 13 10 71 31 104 37 27 5 60 -26 133 -126 28 -38 28
-41 10 -85 -7 -16 -14 -38 -16 -48 -2 -9 -7 -22 -10 -28 -4 -6 -9 -79 -12
-162 l-4 -152 -42 -90 c-22 -49 -45 -92 -49 -93 -5 -2 -6 -8 -3 -12 3 -5 -7
-35 -21 -67 -29 -63 -34 -74 -60 -145 -9 -26 -23 -53 -30 -59 -8 -6 -11 -15
-8 -20 3 -5 0 -9 -5 -9 -6 0 -10 -3 -9 -7 1 -5 -6 -25 -15 -47 -9 -21 -17 -44
-17 -52 0 -7 -4 -15 -9 -19 -5 -3 -15 -22 -22 -43 -6 -20 -16 -43 -22 -51 -6
-7 -12 -20 -14 -29 -1 -9 -7 -18 -13 -20 -5 -2 -8 -7 -5 -12 3 -5 -1 -14 -8
-22 -7 -7 -13 -15 -13 -18 2 -13 -28 -89 -33 -86 -3 2 -7 -6 -7 -18 -1 -12
-13 -47 -27 -77 -54 -119 -71 -244 -40 -289 10 -14 17 -27 16 -30 -1 -3 1 -7
4 -10 4 -3 3 1 -2 9 -5 9 -4 12 2 8 18 -11 24 -72 12 -103 -7 -16 -11 -35 -10
-42 1 -6 -2 -12 -6 -12 -5 0 -9 -9 -10 -19 -1 -11 -8 -39 -16 -63 -17 -48 -26
-91 -33 -158 -8 -71 -14 -91 -24 -85 -6 3 -7 -1 -4 -9 3 -9 1 -16 -6 -16 -6 0
-8 -5 -5 -10 3 -6 1 -10 -4 -10 -6 0 -10 -3 -9 -7 3 -13 -25 -83 -34 -83 -4 0
-7 -3 -6 -7 3 -12 -36 -93 -44 -93 -5 0 -8 -6 -8 -13 0 -7 -9 -23 -19 -34 -11
-12 -17 -24 -14 -27 6 -5 -12 -10 -29 -7 -4 0 -5 -5 -2 -13 6 -16 -70 -98 -82
-88 -4 4 -4 2 0 -5 6 -11 -9 -50 -25 -63 -13 -11 -23 -68 -25 -140 -1 -41 -5
-93 -9 -115 -4 -22 -2 -65 4 -95 7 -30 12 -61 13 -67 1 -7 3 -11 6 -8 3 2 14
-2 26 -10 27 -20 123 -19 170 0 20 8 36 13 36 10 0 -3 12 6 26 20 14 14 30 22
36 19 6 -4 8 -3 5 3 -4 6 7 16 23 23 16 7 32 21 35 31 4 10 18 28 32 39 14 11
34 37 44 57 10 21 33 53 49 71 17 17 28 32 25 32 -3 0 7 18 21 40 15 22 29 38
33 36 4 -3 7 3 8 13 1 17 32 69 68 116 8 10 15 25 15 32 0 6 7 16 16 21 8 5
16 15 18 23 6 31 40 88 49 82 6 -3 7 -1 4 4 -4 6 8 30 25 54 17 24 31 46 30
49 -1 3 4 12 12 22 8 9 12 19 9 22 -4 3 -2 6 3 6 5 0 18 17 29 38 11 20 22 39
25 42 3 3 14 22 24 42 10 21 23 35 28 32 5 -3 8 -2 7 3 -4 22 2 43 11 38 6 -3
10 -1 10 5 0 6 6 8 13 4 9 -5 9 -4 0 6 -9 10 -8 16 3 27 8 8 12 19 9 24 -4 5
-2 9 3 9 5 0 9 6 10 13 2 23 8 42 25 74 10 18 18 36 20 40 4 15 49 9 90 -12
23 -13 62 -28 86 -35 54 -14 66 -26 76 -71 8 -41 38 -87 73 -113 27 -21 99
-38 104 -25 2 4 10 9 18 11 8 2 24 13 35 26 17 18 31 22 70 21 64 -1 85 2 79
13 -3 4 -1 8 4 8 15 0 45 51 45 77 -1 29 51 83 78 83 11 0 34 -7 50 -16 17 -8
51 -18 77 -20 40 -5 53 -2 87 22 22 15 50 28 62 30 65 7 110 66 93 124 -5 16
-7 30 -4 30 2 0 -13 16 -33 35 -63 60 -93 69 -238 71 -71 1 -133 2 -137 3 -4
1 -5 10 -3 22 5 24 23 50 33 46 4 -1 9 3 12 8 8 18 64 60 75 57 5 -2 7 -1 3 3
-3 3 8 21 26 38 17 18 45 50 61 72 16 22 32 42 36 45 3 3 8 13 12 23 4 11 12
15 18 11 7 -4 9 -3 6 4 -8 11 23 72 36 72 4 0 17 21 29 48 55 125 53 518 -3
562 -25 20 -43 82 -44 150 0 61 -4 81 -22 107 -13 17 -23 38 -23 47 0 36 96
45 167 15 50 -21 82 -4 116 61 26 50 28 62 24 125 -6 85 -52 184 -120 260 -43
46 -46 53 -47 110 -1 85 -2 95 -12 95 -4 0 -8 10 -8 23 0 13 -5 28 -12 35 -7
7 -9 12 -5 12 4 0 0 8 -8 18 -8 9 -15 20 -15 25 0 4 -8 16 -17 26 -37 41 -48
56 -45 64 1 5 -2 6 -6 3 -5 -3 -17 3 -27 14 -10 11 -24 20 -32 20 -7 0 -13 4
-13 8 0 8 -55 25 -119 38 -34 6 -74 40 -138 118 -40 47 -41 74 -8 110 14 15
25 29 25 32 0 6 52 86 66 101 6 6 32 45 58 87 26 42 51 76 54 76 13 0 45 68
38 79 -8 12 -20 14 -29 5z"/>
<path d="M3646 3635 c-3 -9 -6 -24 -5 -33 0 -9 5 -4 10 12 9 32 6 48 -5 21z"/>
</g>
</svg>
